<svg id="_x33_0" enable-background="new 0 0 64 64" height="512" viewBox="0 0 64 64" width="512" xmlns="http://www.w3.org/2000/svg"><g><g><g><path d="m49 11.48c0 .34-.08.68-.23.98l-1.04 2.08c-.45.9-1.36 1.46-2.36 1.46-.25 0-.49-.03-.73-.1l-6.64-1.9c-2.29 2.29-4.25 4.87-5.83 7.66-1.58 2.8-2.79 5.8-3.57 8.94-1.06 4.25-1.6 8.61-1.6 12.99v10.41c0 1.1-.9 2-2 2h-2c-1.1 0-2-.9-2-2v-9c0-1.66-1.34-3-3-3h-2c-1.66 0-3 1.34-3 3v9c0 1.1-.9 2-2 2h-2c-1.1 0-2-.9-2-2v-13l-.8-1.61c-.79-1.57-1.2-3.31-1.2-5.06 0-2.79 1.01-5.35 2.68-7.32 2.08-2.45 5.18-4.01 8.65-4.01h5.67l10-13v-1.39c0-2.36.7-4.65 2-6.61l3 3h1.93c1.33 0 2.6.53 3.53 1.46l1.54 1.54 3.62 1.45c.83.33 1.38 1.14 1.38 2.03z" fill="#dfb28b"/></g><g><path d="m58 33c-.03 0-.06 0-.09 0-1.59 0-3.15.27-4.63.79s-2.87 1.29-4.11 2.28l-1.17.93 4.12 1.72-2.04 7.01c-.05.18-.08.36-.08.55 0 .99.73 1.82 1.7 1.96l5.3.76 2.11-7.37.58.24c.21.09.42.13.64.13.92 0 1.67-.75 1.67-1.67v-3.24c0-2.23-1.78-4.04-4-4.09z" fill="#e6e9ed"/></g><g><path d="m58 25c2.21 0 4 1.79 4 4s-1.79 4-4 4c-.03 0-.06 0-.09 0-2.17-.05-3.91-1.82-3.91-4 0-2.21 1.79-4 4-4z" fill="#f0d0b4"/></g></g><g><path d="m58.062 48.921 1.71-5.984c.183.04.37.063.56.063 1.472 0 2.668-1.196 2.668-2.667v-3.245c0-1.667-.817-3.136-2.06-4.065 1.243-.91 2.06-2.368 2.06-4.023 0-2.757-2.243-5-5-5s-5 2.243-5 5c0 1.331.531 2.535 1.382 3.432-2.12.515-4.124 1.481-5.842 2.855l-.533.427-3.007-2.46v-5.889c.818.288 1.59.739 2.243 1.392l1.414-1.414c-3.119-3.119-8.195-3.119-11.314 0s-3.119 8.194 0 11.313l1.414-1.414c-.654-.654-1.132-1.436-1.425-2.285l6.326-.218 3.709 3.034 3.554 1.494-1.673 5.733h-4.429c-.949 0-1.774.676-1.961 1.607l-1.678 8.393h-2.18v2h3.82l1.999-10h4.282c.292 1.149 1.248 2.06 2.462 2.233l4.753.679 4.486 9.87-1.51 1.51 1.414 1.414 2.49-2.49zm-15.062-17.303-3.869-3.166c1.116-.948 2.485-1.449 3.869-1.449zm-5.998 1.349c.006-1.072.295-2.097.825-2.999l3.484 2.85zm20.998-6.967c1.654 0 3 1.346 3 3s-1.346 3-3 3-3-1.346-3-3 1.346-3 3-3zm-.089 8c1.703 0 3.089 1.386 3.089 3.089v3.245c0 .456-.497.792-.923.615l-10.133-4.222c2.271-1.76 5.092-2.727 7.967-2.727zm-6.911 12.278c0-.092.013-.183.036-.265l1.741-5.964 5.124 2.154-1.623 5.684-4.432-.633c-.482-.069-.846-.489-.846-.976z"/><path d="m1 61h57v2h-57z"/><path d="m3.684 31.111c.302-.905.865-1.662 1.589-2.205-.807 1.639-1.273 3.474-1.273 5.42 0 1.904.45 3.81 1.301 5.513l.699 1.397v12.764c0 1.654 1.346 3 3 3h2c1.654 0 3-1.346 3-3v-9c0-1.103.897-2 2-2h2c1.103 0 2 .897 2 2v9c0 1.654 1.346 3 3 3h2c1.654 0 3-1.346 3-3v-10.407c0-4.292.527-8.581 1.568-12.746 1.479-5.917 4.492-11.341 8.729-15.722l6.073 1.736c1.668.473 3.481-.33 4.254-1.872l1.039-2.079c.221-.44.337-.934.337-1.427 0-1.313-.787-2.475-2.006-2.962l-3.432-1.373-1.391-1.391c-1.134-1.133-2.641-1.757-4.242-1.757h-1.515l-3.569-3.57-.677 1.015c-1.418 2.128-2.168 4.604-2.168 7.16v1.055l-9.492 12.34h-5.182c-3.618 0-6.866 1.576-9.123 4.067-2.506.305-4.609 1.988-5.416 4.412l-.735 2.205 1.896.633zm12.642-7.111h6.166l10.508-13.66v-1.735c0-1.746.414-3.448 1.205-4.986l2.381 2.381h2.343c1.068 0 2.073.416 2.829 1.171l1.68 1.681 3.814 1.526c.454.182.748.615.748 1.105 0 .184-.043.368-.126.532l-1.039 2.079c-.348.693-1.166 1.055-1.916.843l-7.21-2.06-.416.416c-4.708 4.708-8.05 10.61-9.664 17.068-1.081 4.325-1.629 8.777-1.629 13.232v10.407c0 .551-.448 1-1 1h-2c-.552 0-1-.449-1-1v-9c0-2.206-1.794-4-4-4h-2c-2.206 0-4 1.794-4 4v9c0 .551-.448 1-1 1h-2c-.552 0-1-.449-1-1v-13.236l-.91-1.819c-.713-1.427-1.09-3.024-1.09-4.619 0-5.694 4.632-10.326 10.326-10.326z"/><path d="m10.707 2.707-1.414-1.414-3.293 3.293-3.293-3.293-1.414 1.414 4.707 4.707z"/><path d="m24.707 2.707-1.414-1.414-3.293 3.293-3.293-3.293-1.414 1.414 4.707 4.707z"/><path d="m8.293 10.707 4.707 4.707 4.707-4.707-1.414-1.414-3.293 3.293-3.293-3.293z"/></g></g></svg>