<svg id="Layer_1" enable-background="new 0 0 510.999 510.999" height="512" viewBox="0 0 510.999 510.999" width="512" xmlns="http://www.w3.org/2000/svg"><path d="m0 341.976h510.999v-162.126l-135.624-63.457c-40.505-18.952-87.151-19.826-128.338-2.405l-247.037 104.491z" fill="#9bd65e"/><path d="m510.999 179.85-12.411-5.807c-37.523 14.621-98.183 38.666-124.591 51.398-53.116 25.609-179.803-33.24-257.215-56.359l-116.782 49.397v180.995h510.999z" fill="#91c656"/><path d="m372.956 265.962-65.891 22.713c-4.948-2.671 5.938 2.417-136.704-62.627-30.487-13.902-66.515-5.477-87.675 20.502l-59.202 72.683c-15.19 18.649-23.484 41.964-23.484 66.015v124.942h510.999c0-165.917-.1-162.126 0-162.126-17.17-59.484-77.579-95.412-138.043-82.102z" fill="#dfb7a4"/><path d="m283.09 510.19h-172.972c12.738-34.48 23.121-65.636 34.299-109.507 20.405-80.089 86.428-70.171 100.393-5.741 8.934 41.223 22.256 73.069 38.28 115.248z" fill="#825e51"/><circle cx="62.63" cy="62.638" fill="#f0a567" r="61.814"/><path d="m112.175 25.671c-11.271-15.083-29.268-24.846-49.545-24.846-50.31 0-78.991 56.749-50.659 97.216 34.051-61.768 74.63-47.164 100.204-72.37z" fill="#fdaa6a"/><path d="m79.53 3.189c-35.598-10.102-71.55 13.033-77.776 48.774 18.411-36.87 62.089-25.831 77.776-48.774z" fill="#fcbc80"/><path d="m370.507 114.226c-39.345-16.816-83.922-16.967-123.47-.239l-60.542 25.608c14.735 15.762 40.577 26.541 85.629 10.856 36.201-12.603 70.16-25.306 98.383-36.225z" fill="#aced70"/><path d="m170.361 226.048c-30.487-13.902-66.515-5.477-87.675 20.502l-39.657 48.688c15.933-4.126 35.018-4.364 57.893 1.655 107.533 28.298 206.144-8.218 206.144-8.218-4.949-2.671 5.938 2.417-136.705-62.627z" fill="#e0c8bf"/><path d="m170.361 226.048c-26.205-11.949-56.495-7.39-77.927 10.622 7.602 1.518 19.516-3.133 26.882 4.335 31.764 32.209 58.549 10.959 77.641-2.83z" fill="#e8d9d4"/><path d="m372.956 265.962-5.676 1.957c6.433 5.55 14.125 13.431 23.343 24.376 46.363 55.056 97.07 93.091 120.376 97.271v-41.502c-17.17-59.484-77.579-95.412-138.043-82.102z" fill="#e0c8bf"/><path d="m510.999 443.714c-11.588 4.683-24.011 7.018-36.071 4.221-40.679-9.433-63.671-48.342-87.252-5.895-12.691 22.844-40.575 48.927-63.259 68.151h186.583v-66.477z" fill="#c69a85"/></svg>