<?xml version="1.0" encoding="iso-8859-1"?>
<!-- Generator: Adobe Illustrator 19.0.0, SVG Export Plug-In . SVG Version: 6.00 Build 0)  -->
<svg version="1.1" id="Capa_1" xmlns="http://www.w3.org/2000/svg" xmlns:xlink="http://www.w3.org/1999/xlink" x="0px" y="0px"
	 viewBox="0 0 511.998 511.998" style="enable-background:new 0 0 511.998 511.998;" xml:space="preserve">
<g>
	<g>
		<path d="M460.888,197.398c-4.428-33.35-19.095-56.994-32.546-72.237l9.75,0.42c0.181,0.008,0.36,0.012,0.538,0.012
			c4.694,0,9.013-2.826,11.001-7.199c1.956-4.302,1.347-9.467-1.551-13.156c-17.787-22.669-38.213-35.459-55.249-42.667
			c1.138-1.19,2.205-2.447,3.199-3.768c7.212-9.569,8.139-19.1,8.252-20.919c0.326-5.326-2.212-10.15-6.467-12.292
			c-3.727-1.876-7.884-1.773-11.215,0.213c-3.548,0.505-19.754,1.342-66.858-14.586c-19.27-6.518-38.142-7.915-55.761-4.116
			C252.662,2.388,240.622,0,228.151,0c-11.618,0-23.693,2.092-35.892,6.219c-47.099,15.927-63.354,15.079-66.85,14.589
			c-3.327-1.989-7.495-2.093-11.219-0.22c-4.262,2.143-6.801,6.972-6.47,12.3c0.111,1.812,1.034,11.336,8.254,20.917
			c0.995,1.319,2.062,2.575,3.198,3.765c-17.037,7.208-37.463,19.999-55.251,42.668c-2.897,3.692-3.506,8.855-1.551,13.157
			c1.989,4.373,6.307,7.198,11.001,7.198c0.181,0,0.363-0.004,0.508-0.011l9.722-0.418c-1.786,2.016-3.512,4.089-5.175,6.215
			c-2.552,3.263-1.976,7.977,1.286,10.528c3.263,2.553,7.976,1.976,10.528-1.286c5.204-6.652,11.1-12.713,17.524-18.014
			c2.487-2.052,3.384-5.463,2.229-8.473c-1.154-3.009-4.094-4.941-7.324-4.806l-23.553,1.014
			C98.758,82.26,121.227,71.79,137.01,67.055c2.947-0.885,5.055-3.48,5.317-6.546c0.262-3.065-1.375-5.98-4.13-7.352
			c-4.17-2.076-7.617-4.896-10.245-8.382c-2.515-3.337-3.837-6.672-4.527-9.103c1.453,0.199,3.275,0.337,5.54,0.337
			c14.403,0,37.951-5.389,68.099-15.583C207.711,16.826,218.17,15,228.151,15c11.207,0,21.987,2.289,32.041,6.805
			c1.523,0.685,3.235,0.842,4.858,0.442c6.075-1.489,12.403-2.245,18.811-2.245c9.975,0,20.431,1.825,31.077,5.426
			c30.148,10.194,53.693,15.583,68.092,15.583c0.002,0,0.004,0,0.006,0c2.266,0,4.088-0.138,5.541-0.337
			c-0.689,2.432-2.012,5.767-4.526,9.103c-2.625,3.485-6.071,6.307-10.243,8.385c-2.754,1.371-4.391,4.286-4.129,7.352
			c0.262,3.066,2.37,5.66,5.317,6.545c15.779,4.734,38.248,15.205,57.89,38.285l-23.552-1.014c-3.239-0.157-6.169,1.797-7.324,4.806
			c-1.155,3.01-0.258,6.421,2.228,8.473c15.605,12.875,35.116,35.798,41.165,72.614l-12.172-4.19
			c-2.329-0.8-4.901-0.408-6.884,1.049c-1.983,1.459-3.125,3.797-3.055,6.258c0.155,5.407-0.068,14.006-2.016,24.264
			c-0.772,4.069,1.9,7.994,5.97,8.767c0.473,0.09,0.942,0.133,1.407,0.133c3.531,0,6.677-2.506,7.359-6.103
			c1.183-6.227,1.802-11.928,2.094-16.824l6.883,2.37c1.247,0.43,2.547,0.648,3.864,0.648c2.969,0,5.826-1.113,8.043-3.131
			C459.948,205.689,461.44,201.553,460.888,197.398z"/>
	</g>
</g>
<g>
	<g>
		<path d="M433.732,464.537c-0.461-4.158-1.929-8.135-4.281-11.579c2.925-5.754,4.451-12.097,4.451-18.632V430.5h0.323
			c4.143,0,7.5-3.357,7.5-7.5s-3.357-7.5-7.5-7.5h-0.323v-12.095c3.603-0.549,6.364-3.649,6.364-7.405
			c0-3.762-2.772-6.867-6.382-7.408c-0.379-22.582-19.033-40.842-41.923-40.842h-44.614c0.665-2.143,1.362-4.408,2.082-6.772
			c6.682,3.346,11.638,3.614,12.988,3.614c5.718,0,10.591-4.007,11.85-9.746c0.565-2.583,0.323-5.221-0.636-7.578
			c1.389-3.486,6.742-13.408,27.11-34.327c8.064-8.282,14.969-17.447,20.524-27.241c2.044-3.603,0.78-8.18-2.823-10.224
			c-3.6-2.045-8.181-0.78-10.224,2.823c-4.924,8.679-11.056,16.814-18.226,24.178c-21.083,21.653-31.787,37.11-31.821,45.949
			c-1.239-0.501-2.714-1.231-4.352-2.252c5.563-19.288,10.898-40.189,10.898-49.395v-20.077h4.365
			c17.173,0,31.145-13.972,31.145-31.145v-25.701c0-17.174-13.972-31.145-31.145-31.145h-5.703c-1.75-3.311-5.069-5.668-9.054-6.053
			c-31.473-3.049-51.92-13.668-63.531-22.04c-1.971-1.422-4.297-2.173-6.727-2.173c-1.659,0-3.333,0.369-4.845,1.07
			c-3.765,1.749-6.302,5.407-6.621,9.548l-1.384,17.979c-18.639-3.804-37.156-15.683-49.648-25.212
			c-2.857-2.182-6.746-2.903-10.194-1.897c-3.493,1.018-6.326,3.665-7.578,7.081l-5.866,15.996
			c-11.592-3.195-22.132-9.117-31.355-17.622c-2.13-1.966-4.899-3.048-7.799-3.048c-1.595,0-3.145,0.324-4.616,0.967
			c-4.182,1.833-6.883,5.968-6.883,10.533v14.871h-4.364c-17.174,0-31.146,13.972-31.146,31.145v25.701
			c0,17.174,13.972,31.145,31.146,31.145h4.364v20.077c0,8.548,4.6,27.177,9.71,45.235c-1.173,0.656-2.237,1.148-3.168,1.512
			c0-0.012,0-0.022,0-0.034c-0.043-8.771-11.045-24.682-31.816-46.016c-31.307-32.153-33.715-69.553-33.298-84.14
			c0.07-2.461-1.071-4.8-3.055-6.258c-1.984-1.458-4.559-1.849-6.884-1.049l-12.17,4.19c1.128-6.834,2.776-13.484,4.915-19.823
			c1.325-3.925-0.783-8.18-4.707-9.505c-3.923-1.325-8.18,0.782-9.504,4.708c-2.88,8.531-4.963,17.547-6.191,26.796
			c-0.552,4.156,0.94,8.292,3.989,11.063c2.221,2.02,5.079,3.133,8.047,3.133c1.315,0,2.614-0.218,3.857-0.646l6.9-2.376
			c1.24,20.227,8.134,54.361,37.354,84.372c20.256,20.803,25.663,30.825,27.085,34.388c-0.939,2.344-1.172,4.96-0.611,7.52
			c1.26,5.736,6.133,9.742,11.85,9.742c1.219,0,5.634-0.22,11.673-2.963c1.184,3.946,2.332,7.69,3.396,11.12h-23.365H120.04h-0.798
			c-0.261,0-0.518,0.014-0.772,0.039c-20.434,0.75-37.172,16.041-39.955,35.711h-3.177c-4.142,0-7.5,3.357-7.5,7.5
			s3.358,7.5,7.5,7.5h2.761v7h-5.63c-4.142,0-7.5,3.357-7.5,7.5s3.358,7.5,7.5,7.5h5.63v6h-2.63c-4.142,0-7.5,3.357-7.5,7.5
			s3.358,7.5,7.5,7.5h3.256c0.702,3.986,1.986,7.839,3.827,11.458c-2.874,4.206-4.453,9.201-4.453,14.357v4.185h-2.63
			c-4.142,0-7.5,3.357-7.5,7.5s3.358,7.5,7.5,7.5h2.63v12.763c0,7.023,5.741,12.737,12.798,12.737h28.344h21.761h201.597H380h41.104
			c7.057,0,12.798-5.714,12.798-12.737V479.44c3.717-0.445,6.599-3.603,6.599-7.44C440.502,468.103,437.531,464.904,433.732,464.537
			z M364.72,219.661h5.291c4.142,0,7.5-3.357,7.5-7.5s-3.358-7.5-7.5-7.5h-5.291V183.71h4.365
			c8.902,0.001,16.145,7.244,16.145,16.146v25.701c0,8.902-7.242,16.145-16.145,16.145h-4.365V219.661z M147.281,204.663h-5.291
			c-4.142,0-7.5,3.357-7.5,7.5s3.358,7.5,7.5,7.5h5.291v22.041h-4.364v-0.001c-8.903,0-16.146-7.243-16.146-16.145v-25.701
			c0-8.902,7.243-16.145,16.146-16.145h4.364V204.663z M111.743,497H93.099v-10.5H94c4.142,0,7.5-3.357,7.5-7.5s-3.358-7.5-7.5-7.5
			h-0.901v-4.185c0-3.004,1.322-5.889,3.628-7.917c2.877-2.53,3.384-6.823,1.176-9.954c-1.726-2.447-2.987-5.131-3.789-7.949
			c4.089-0.062,7.387-3.39,7.387-7.494c0-4.143-3.358-7.5-7.5-7.5H93.1v-6H96c4.142,0,7.5-3.357,7.5-7.5s-3.358-7.5-7.5-7.5h-2.901
			v-7h4.095c4.142,0,7.5-3.357,7.5-7.5s-3.358-7.5-7.5-7.5h-3.441c2.083-9.182,9.007-16.577,17.989-19.448V497z M162.281,161.417
			c10.265,8.063,21.759,13.679,34.272,16.73c0.97,0.234,1.963,0.354,2.95,0.354c5.222,0,9.937-3.295,11.733-8.197l5.031-13.72
			c14.355,10.461,34.539,22.417,55.249,25.758c3.411,0.549,6.998-0.382,9.718-2.521c2.737-2.156,4.461-5.385,4.729-8.862
			l1.133-14.727c13.162,8.421,33.618,17.715,62.623,21.024v43.525c0,24.929-9.789,47.608-25.719,64.414V270
			c0-16.817-13.683-30.5-30.5-30.5h-10.916v-4.016c0-4.143-3.357-7.5-7.5-7.5s-7.5,3.357-7.5,7.5v8.163
			c-0.208,0.294-1.057,0.938-2.5,0.938h-14.168c-1.355,0-2.5-1.145-2.5-2.5V203c0-4.143-3.358-7.5-7.5-7.5
			c-4.142,0-7.5,3.357-7.5,7.5v36.5H218.5c-16.818,0-30.5,13.683-30.5,30.5v15.195c-15.93-16.806-25.72-39.485-25.72-64.415V161.417
			z M162.281,276.781v-0.696c7.22,12.198,16.902,23.027,28.732,31.86c2.274,1.698,5.313,1.966,7.849,0.695
			c2.537-1.272,4.139-3.867,4.139-6.705V270c0-8.547,6.953-15.5,15.5-15.5h20.099c3.165,3.141,7.518,5.085,12.317,5.085h14.168
			c5.067,0,9.625-1.967,12.823-5.085H293.5c8.547,0,15.5,6.953,15.5,15.5v31.935c0,2.838,1.602,5.433,4.139,6.705
			c2.537,1.269,5.573,1.002,7.849-0.695c11.83-8.834,21.512-19.662,28.732-31.86v0.695c0,11.249-11.883,51.893-20.758,79.368
			l-2.058-2.082c-1.645-1.662-3.964-2.466-6.291-2.165c-2.32,0.299-4.368,1.663-5.537,3.688l-14.076,24.379l-6.32-10.946
			c-1.783-3.089-5.494-4.492-8.879-3.361c-1.934,0.648-5.903,1.98-29.799,30.603c-23.896-28.623-27.866-29.955-29.801-30.603
			c-0.786-0.264-1.589-0.39-2.382-0.39c-2.621,0-5.127,1.38-6.496,3.751L211,379.971l-14.076-24.381
			c-1.169-2.025-3.217-3.39-5.538-3.688c-2.318-0.295-4.646,0.502-6.291,2.166l-2.058,2.08
			C174.162,328.675,162.281,288.031,162.281,276.781z M418.902,497H387.5v-66.5c0-4.143-3.357-7.5-7.5-7.5s-7.5,3.357-7.5,7.5
			v58.178l-33.752-27.601c-3.208-2.623-7.933-2.147-10.554,1.058c-2.622,3.207-2.148,7.932,1.058,10.554L358.982,497H313.5v-8.5
			c0-4.143-3.357-7.5-7.5-7.5s-7.5,3.357-7.5,7.5v8.5h-50v-8.5c0-4.143-3.358-7.5-7.5-7.5c-4.142,0-7.5,3.357-7.5,7.5v8.5h-46v-8.5
			c0-4.143-3.358-7.5-7.5-7.5c-4.142,0-7.5,3.357-7.5,7.5v8.5h-45.759V362.75h42.67c0.384,1.182,0.683,2.098,0.879,2.693
			c1.572,5.438,5.834,8.938,10.911,8.938c2.67,0,5.321-1.004,7.603-2.855l11.966,20.727c2.355,4.079,6.084,6.419,10.231,6.419
			c4.147,0,7.876-2.34,10.23-6.419l4.473-7.748c5.377,5.686,13.492,15.005,20.449,23.377c2.366,3.689,5.92,5.79,9.848,5.79
			c0.338,0,0.67-0.036,1.002-0.067l41.25,33.734c3.207,2.623,7.932,2.149,10.554-1.058c2.622-3.207,2.148-7.932-1.058-10.554
			l-38.71-31.655c6.135-7.271,12.685-14.733,17.258-19.567l4.472,7.746c2.354,4.08,6.084,6.421,10.231,6.421
			c4.148,0,7.877-2.341,10.23-6.419l11.967-20.728c2.281,1.853,4.932,2.856,7.602,2.856c0.001,0,0.001,0,0.001,0
			c5.076,0,9.339-3.5,10.911-8.938c0.195-0.594,0.497-1.518,0.878-2.693h49.373c14.587,0,26.494,11.48,26.92,25.75H407
			c-4.143,0-7.5,3.357-7.5,7.5s3.357,7.5,7.5,7.5h11.901v12H409c-4.143,0-7.5,3.357-7.5,7.5s3.357,7.5,7.5,7.5h9.901v3.826
			c0,5.434-1.661,10.661-4.804,15.117c-2.209,3.131-1.701,7.424,1.177,9.954c1.568,1.38,2.668,3.161,3.22,5.103h-10.719
			c-4.143,0-7.5,3.357-7.5,7.5s3.357,7.5,7.5,7.5h11.126V497z"/>
	</g>
</g>
<g>
	<g>
		<path d="M307.739,184.501c-11.567,0-20.977,9.434-20.977,21.029c0,11.595,9.411,21.029,20.977,21.029
			c11.566,0,20.977-9.434,20.977-21.029C328.716,193.935,319.305,184.501,307.739,184.501z M307.739,211.558
			c-3.296,0-5.977-2.705-5.977-6.029c0-3.324,2.681-6.029,5.977-6.029c3.296,0,5.977,2.705,5.977,6.029
			C313.716,208.853,311.034,211.558,307.739,211.558z"/>
	</g>
</g>
<g>
	<g>
		<path d="M204.263,184.501c-11.567,0-20.978,9.434-20.978,21.029c0,11.595,9.411,21.029,20.978,21.029
			c11.566,0,20.976-9.434,20.976-21.029C225.24,193.935,215.829,184.501,204.263,184.501z M204.263,211.558
			c-3.296,0-5.978-2.705-5.978-6.029c0-3.324,2.682-6.029,5.978-6.029c3.295,0,5.976,2.705,5.976,6.029
			C210.24,208.853,207.558,211.558,204.263,211.558z"/>
	</g>
</g>
<g>
	<g>
		<path d="M280.699,263.5h-49.397c-12.08,0-21.907,9.828-21.907,21.908v24.697c-0.001,6.028,4.902,10.931,10.93,10.931h71.351
			c6.026,0,10.93-4.903,10.93-10.931v-24.697C302.607,273.328,292.779,263.5,280.699,263.5z M250.531,278.5h10.939v8.327h-10.939
			V278.5z M224.394,285.408c0-3.81,3.099-6.908,6.907-6.908h4.229v8.327h-11.136V285.408z M287.605,306.036h-63.211v-4.209h63.211
			V306.036z M287.606,286.827h-11.135V278.5h4.228c3.809,0,6.907,3.099,6.907,6.908V286.827z"/>
	</g>
</g>
<g>
	<g>
		<path d="M149,382.5c-4.142,0-7.5,3.357-7.5,7.5v16c0,4.143,3.358,7.5,7.5,7.5c4.142,0,7.5-3.357,7.5-7.5v-16
			C156.5,385.857,153.143,382.5,149,382.5z"/>
	</g>
</g>
<g>
	<g>
		<path d="M178,408.5c-4.142,0-7.5,3.357-7.5,7.5v16c0,4.143,3.358,7.5,7.5,7.5c4.142,0,7.5-3.357,7.5-7.5v-16
			C185.5,411.857,182.143,408.5,178,408.5z"/>
	</g>
</g>
<g>
	<g>
		<path d="M223,405.5c-4.142,0-7.5,3.357-7.5,7.5v16c0,4.143,3.358,7.5,7.5,7.5c4.142,0,7.5-3.357,7.5-7.5v-16
			C230.5,408.857,227.143,405.5,223,405.5z"/>
	</g>
</g>
<g>
	<g>
		<path d="M270,443.5c-4.143,0-7.5,3.357-7.5,7.5v16c0,4.143,3.357,7.5,7.5,7.5s7.5-3.357,7.5-7.5v-16
			C277.5,446.857,274.143,443.5,270,443.5z"/>
	</g>
</g>
<g>
	<g>
		<path d="M205,445.5c-4.142,0-7.5,3.357-7.5,7.5v16c0,4.143,3.358,7.5,7.5,7.5c4.142,0,7.5-3.357,7.5-7.5v-16
			C212.5,448.857,209.143,445.5,205,445.5z"/>
	</g>
</g>
<g>
	<g>
		<path d="M152,451.5c-4.142,0-7.5,3.357-7.5,7.5v16c0,4.143,3.358,7.5,7.5,7.5c4.142,0,7.5-3.357,7.5-7.5v-16
			C159.5,454.857,156.143,451.5,152,451.5z"/>
	</g>
</g>
<g>
</g>
<g>
</g>
<g>
</g>
<g>
</g>
<g>
</g>
<g>
</g>
<g>
</g>
<g>
</g>
<g>
</g>
<g>
</g>
<g>
</g>
<g>
</g>
<g>
</g>
<g>
</g>
<g>
</g>
</svg>
