<svg width="492" height="449" viewBox="0 0 492 449" fill="none" xmlns="http://www.w3.org/2000/svg">
<g filter="url(#filter0_d)">
<rect x="22.4058" y="98.7474" width="386" height="294" rx="20" transform="rotate(-10 22.4058 98.7474)" fill="#0480FF"/>
</g>
<path d="M60.6969 135.519C60.4524 134.132 60.5234 132.877 60.9101 131.753C61.3097 130.61 61.973 129.672 62.9 128.94C63.8427 128.205 64.9758 127.721 66.2994 127.488C68.0327 127.182 69.5763 127.414 70.9304 128.182C72.3001 128.948 73.2954 130.17 73.9162 131.847L68.3619 132.827C68.0348 132.17 67.5718 131.894 66.9731 131.999C66.5476 132.074 66.2436 132.331 66.0609 132.77C65.8941 133.205 65.8787 133.809 66.0148 134.581C66.151 135.353 66.3719 135.915 66.6777 136.268C66.9993 136.617 67.3728 136.754 67.7983 136.679C68.397 136.574 68.7377 136.156 68.8203 135.427L74.3746 134.447C74.3651 136.236 73.8477 137.725 72.8224 138.913C71.8129 140.098 70.4415 140.844 68.7083 141.149C67.3847 141.383 66.1543 141.315 65.0171 140.947C63.8957 140.576 62.9531 139.93 62.1895 139.009C61.4389 138.069 60.9413 136.905 60.6969 135.519ZM75.0997 132.979C74.8524 131.577 74.8748 130.322 75.1669 129.214C75.472 128.088 75.9949 127.184 76.7355 126.501C77.4734 125.802 78.3623 125.361 79.4023 125.178C80.2689 125.025 81.0493 125.074 81.7435 125.325C82.4349 125.561 83.0002 125.957 83.4395 126.513L83.1186 124.693L88.342 123.772L90.6925 137.102L85.4691 138.023L85.1482 136.203C84.9256 136.876 84.5312 137.449 83.9648 137.923C83.3957 138.381 82.6778 138.686 81.8111 138.839C80.7712 139.022 79.7864 138.92 78.8568 138.531C77.9245 138.127 77.1238 137.456 76.4547 136.518C75.7986 135.561 75.3469 134.382 75.0997 132.979ZM84.2938 131.358C84.1688 130.649 83.8904 130.129 83.4585 129.799C83.0266 129.469 82.5271 129.354 81.9598 129.454C81.3926 129.554 80.9625 129.833 80.6695 130.291C80.3766 130.749 80.2926 131.332 80.4176 132.041C80.5427 132.751 80.8211 133.27 81.253 133.6C81.6848 133.93 82.1844 134.045 82.7516 133.945C83.3189 133.845 83.749 133.566 84.0419 133.108C84.3349 132.65 84.4189 132.067 84.2938 131.358ZM98.929 130.508L99.5851 121.789L105.163 120.806L103.07 134.92L96.5231 136.074L89.7291 123.527L95.3071 122.544L98.929 130.508ZM120.614 124.832C120.678 125.194 120.716 125.545 120.727 125.884L112.289 127.372C112.571 128.508 113.153 128.999 114.035 128.843C114.602 128.743 114.966 128.411 115.127 127.847L120.681 126.867C120.658 127.846 120.407 128.768 119.926 129.632C119.457 130.479 118.797 131.204 117.946 131.809C117.107 132.396 116.136 132.786 115.033 132.981C113.709 133.214 112.479 133.147 111.342 132.779C110.22 132.408 109.278 131.762 108.514 130.84C107.763 129.9 107.266 128.737 107.021 127.351C106.777 125.964 106.848 124.709 107.235 123.584C107.634 122.442 108.297 121.504 109.224 120.772C110.167 120.037 111.3 119.553 112.624 119.32C113.947 119.086 115.17 119.155 116.291 119.526C117.426 119.878 118.366 120.509 119.111 121.417C119.871 122.323 120.373 123.461 120.614 124.832ZM115.076 124.517C114.998 124.076 114.798 123.77 114.475 123.599C114.15 123.413 113.774 123.357 113.349 123.432C112.419 123.596 111.955 124.141 111.956 125.067L115.076 124.517ZM138.9 114.76C140.602 114.459 142.008 114.74 143.118 115.6C144.244 116.457 144.961 117.761 145.27 119.51L146.633 127.238L141.409 128.159L140.163 121.092C140.063 120.525 139.812 120.115 139.41 119.861C139.021 119.588 138.542 119.502 137.975 119.602C137.392 119.705 136.964 119.951 136.692 120.34C136.416 120.713 136.329 121.184 136.429 121.751L137.675 128.818L132.451 129.739L131.205 122.672C131.105 122.105 130.854 121.694 130.452 121.44C130.063 121.167 129.584 121.081 129.017 121.181C128.434 121.284 128.006 121.53 127.734 121.919C127.459 122.293 127.371 122.763 127.471 123.33L128.717 130.397L123.47 131.323L121.119 117.992L126.367 117.067L126.683 118.863C126.961 118.229 127.393 117.682 127.978 117.222C128.579 116.758 129.32 116.449 130.202 116.293C131.164 116.124 132.052 116.186 132.868 116.481C133.68 116.76 134.374 117.239 134.949 117.918C135.315 117.138 135.837 116.461 136.516 115.887C137.192 115.296 137.986 114.921 138.9 114.76ZM147.021 120.297C146.774 118.895 146.797 117.64 147.089 116.533C147.394 115.406 147.917 114.502 148.657 113.819C149.395 113.12 150.284 112.679 151.324 112.496C152.191 112.343 152.971 112.392 153.665 112.643C154.357 112.879 154.922 113.275 155.361 113.831L155.04 112.011L160.264 111.09L162.614 124.42L157.391 125.341L157.07 123.522C156.847 124.194 156.453 124.768 155.887 125.241C155.317 125.699 154.6 126.004 153.733 126.157C152.693 126.34 151.708 126.238 150.779 125.849C149.846 125.445 149.045 124.774 148.376 123.836C147.72 122.879 147.269 121.7 147.021 120.297ZM156.216 118.676C156.091 117.967 155.812 117.448 155.38 117.118C154.948 116.788 154.449 116.673 153.882 116.773C153.314 116.873 152.884 117.152 152.591 117.609C152.298 118.067 152.214 118.651 152.339 119.36C152.464 120.069 152.743 120.588 153.175 120.918C153.607 121.248 154.106 121.363 154.673 121.263C155.241 121.163 155.671 120.884 155.964 120.427C156.257 119.969 156.341 119.385 156.216 118.676ZM171.939 108.934C173.468 108.664 174.748 108.967 175.779 109.841C176.826 110.712 177.504 112.022 177.812 113.771L179.175 121.5L173.952 122.421L172.706 115.354C172.595 114.724 172.334 114.258 171.923 113.957C171.526 113.637 171.043 113.527 170.476 113.627C169.893 113.73 169.469 114 169.205 114.436C168.938 114.857 168.86 115.382 168.971 116.013L170.217 123.08L164.97 124.005L162.62 110.675L167.867 109.749L168.225 111.782C168.524 111.08 168.977 110.472 169.585 109.958C170.209 109.442 170.994 109.101 171.939 108.934ZM183.582 113.851C183.338 112.464 183.409 111.209 183.796 110.084C184.195 108.942 184.859 108.004 185.786 107.272C186.728 106.537 187.861 106.053 189.185 105.82C190.918 105.514 192.462 105.746 193.816 106.514C195.186 107.28 196.181 108.502 196.802 110.179L191.247 111.159C190.92 110.502 190.457 110.226 189.859 110.331C189.433 110.406 189.129 110.663 188.946 111.102C188.78 111.537 188.764 112.141 188.9 112.913C189.036 113.685 189.257 114.247 189.563 114.6C189.885 114.949 190.258 115.086 190.684 115.011C191.283 114.906 191.623 114.488 191.706 113.759L197.26 112.779C197.251 114.568 196.733 116.057 195.708 117.245C194.698 118.43 193.327 119.175 191.594 119.481C190.27 119.714 189.04 119.647 187.903 119.279C186.781 118.908 185.839 118.262 185.075 117.341C184.324 116.401 183.827 115.237 183.582 113.851ZM205.831 116.971C204.571 117.193 203.416 117.185 202.367 116.948C201.333 116.708 200.469 116.275 199.774 115.65C199.079 115.026 198.611 114.263 198.371 113.363L203.406 112.476C203.538 112.858 203.755 113.121 204.056 113.263C204.373 113.402 204.744 113.434 205.17 113.359C205.438 113.311 205.641 113.219 205.779 113.081C205.914 112.927 205.967 112.763 205.936 112.59C205.883 112.291 205.68 112.107 205.327 112.039C204.974 111.972 204.39 111.928 203.574 111.91C202.58 111.89 201.748 111.826 201.079 111.716C200.425 111.604 199.815 111.322 199.248 110.869C198.696 110.414 198.337 109.714 198.17 108.768C198.026 107.949 198.108 107.171 198.417 106.434C198.739 105.679 199.292 105.037 200.076 104.509C200.857 103.965 201.855 103.586 203.068 103.372C204.864 103.055 206.344 103.249 207.508 103.954C208.688 104.655 209.505 105.697 209.96 107.079L205.304 107.9C205.161 107.552 204.947 107.305 204.662 107.161C204.374 107 204.017 106.958 203.591 107.033C203.324 107.08 203.128 107.171 203.006 107.306C202.881 107.426 202.836 107.588 202.873 107.793C202.92 108.061 203.121 108.237 203.477 108.32C203.83 108.388 204.382 108.429 205.132 108.443C206.126 108.462 206.975 108.532 207.679 108.651C208.382 108.771 209.029 109.079 209.621 109.576C210.209 110.057 210.592 110.802 210.77 111.811C210.909 112.598 210.806 113.348 210.46 114.059C210.114 114.77 209.54 115.383 208.737 115.898C207.95 116.41 206.981 116.768 205.831 116.971ZM219.518 114.557C218.258 114.78 217.103 114.772 216.054 114.535C215.02 114.294 214.156 113.862 213.461 113.237C212.766 112.612 212.299 111.85 212.059 110.95L217.093 110.062C217.226 110.445 217.442 110.707 217.744 110.849C218.061 110.988 218.432 111.02 218.857 110.945C219.125 110.898 219.328 110.805 219.466 110.667C219.602 110.513 219.654 110.35 219.623 110.176C219.571 109.877 219.368 109.694 219.014 109.626C218.661 109.558 218.077 109.515 217.261 109.496C216.267 109.477 215.435 109.412 214.766 109.303C214.112 109.19 213.502 108.908 212.935 108.456C212.384 108.001 212.024 107.3 211.858 106.355C211.713 105.536 211.795 104.757 212.104 104.021C212.426 103.265 212.979 102.624 213.763 102.095C214.544 101.551 215.542 101.172 216.755 100.959C218.551 100.642 220.032 100.836 221.196 101.54C222.375 102.242 223.193 103.284 223.648 104.666L218.991 105.487C218.849 105.138 218.635 104.892 218.349 104.747C218.061 104.587 217.704 104.544 217.279 104.619C217.011 104.666 216.816 104.758 216.693 104.893C216.568 105.013 216.524 105.175 216.56 105.38C216.607 105.647 216.809 105.823 217.165 105.907C217.518 105.974 218.069 106.015 218.819 106.029C219.813 106.049 220.662 106.118 221.366 106.238C222.069 106.358 222.717 106.666 223.308 107.163C223.896 107.644 224.28 108.389 224.457 109.397C224.596 110.185 224.493 110.934 224.147 111.645C223.801 112.356 223.227 112.969 222.424 113.484C221.637 113.997 220.669 114.354 219.518 114.557Z" fill="white"/>
<circle cx="310.5" cy="197.5" r="44.5" fill="#F7F9FF" fill-opacity="0.3"/>
<circle cx="334.5" cy="44.5" r="44.5" fill="#F7F9FF" fill-opacity="0.3"/>
<circle cx="171" cy="256" r="94" fill="#F7F9FF" fill-opacity="0.3"/>
<rect x="310.835" y="277.251" width="115" height="35" rx="17.5" transform="rotate(-10 310.835 277.251)" fill="#F1F1F1"/>
<path d="M362.137 76.5628L379.863 73.4372" stroke="white" stroke-width="2" stroke-linecap="round" stroke-linejoin="round"/>
<path d="M361.095 70.654L378.821 67.5283" stroke="white" stroke-width="2" stroke-linecap="round" stroke-linejoin="round"/>
<path d="M363.179 82.4717L380.905 79.346" stroke="white" stroke-width="2" stroke-linecap="round" stroke-linejoin="round"/>
<defs>
<filter id="filter0_d" x="0.405823" y="31.7192" width="491.188" height="416.562" filterUnits="userSpaceOnUse" color-interpolation-filters="sRGB">
<feFlood flood-opacity="0" result="BackgroundImageFix"/>
<feColorMatrix in="SourceAlpha" type="matrix" values="0 0 0 0 0 0 0 0 0 0 0 0 0 0 0 0 0 0 127 0"/>
<feOffset dx="8" dy="30"/>
<feGaussianBlur stdDeviation="15"/>
<feColorMatrix type="matrix" values="0 0 0 0 0 0 0 0 0 0 0 0 0 0 0 0 0 0 0.25 0"/>
<feBlend mode="normal" in2="BackgroundImageFix" result="effect1_dropShadow"/>
<feBlend mode="normal" in="SourceGraphic" in2="effect1_dropShadow" result="shape"/>
</filter>
</defs>
</svg>
